<?xml version="1.0" encoding="UTF-8"?>
<!DOCTYPE svg PUBLIC "-//W3C//DTD SVG 1.1//EN" "http://www.w3.org/Graphics/SVG/1.1/DTD/svg11.dtd">
<!-- Creator: CorelDRAW 2021 (64-Bit) -->
<svg xmlns="http://www.w3.org/2000/svg" xml:space="preserve" width="800mm" height="400mm" version="1.1" style="shape-rendering:geometricPrecision; text-rendering:geometricPrecision; image-rendering:optimizeQuality; fill-rule:evenodd; clip-rule:evenodd"
viewBox="0 0 80000 40000"
 xmlns:xlink="http://www.w3.org/1999/xlink"
 xmlns:xodm="http://www.corel.com/coreldraw/odm/2003">
 <defs>
  <style type="text/css">
   <![CDATA[
    .str1 {stroke:#BB16F2;stroke-width:352.78;stroke-miterlimit:22.9256}
    .str0 {stroke:#F575F3;stroke-width:20;stroke-miterlimit:22.9256}
    .fil206 {fill:none}
    .fil205 {fill:none;fill-rule:nonzero}
    .fil1 {fill:#C55599}
    .fil0 {fill:#FD73CF}
    .fil3 {fill:#7A05F7;fill-rule:nonzero}
    .fil4 {fill:#7B06F7;fill-rule:nonzero}
    .fil5 {fill:#7C07F6;fill-rule:nonzero}
    .fil6 {fill:#7D08F6;fill-rule:nonzero}
    .fil8 {fill:#7E09F5;fill-rule:nonzero}
    .fil7 {fill:#7E09F6;fill-rule:nonzero}
    .fil9 {fill:#7F0AF5;fill-rule:nonzero}
    .fil10 {fill:#800BF5;fill-rule:nonzero}
    .fil11 {fill:#810CF5;fill-rule:nonzero}
    .fil12 {fill:#810DF4;fill-rule:nonzero}
    .fil13 {fill:#820DF4;fill-rule:nonzero}
    .fil14 {fill:#820EF4;fill-rule:nonzero}
    .fil15 {fill:#830EF4;fill-rule:nonzero}
    .fil16 {fill:#830FF4;fill-rule:nonzero}
    .fil17 {fill:#840FF3;fill-rule:nonzero}
    .fil18 {fill:#8410F3;fill-rule:nonzero}
    .fil19 {fill:#8510F3;fill-rule:nonzero}
    .fil20 {fill:#8611F3;fill-rule:nonzero}
    .fil21 {fill:#8712F2;fill-rule:nonzero}
    .fil22 {fill:#8813F2;fill-rule:nonzero}
    .fil23 {fill:#8814F2;fill-rule:nonzero}
    .fil24 {fill:#8914F2;fill-rule:nonzero}
    .fil25 {fill:#8915F2;fill-rule:nonzero}
    .fil26 {fill:#8A15F1;fill-rule:nonzero}
    .fil27 {fill:#8A16F1;fill-rule:nonzero}
    .fil28 {fill:#8B16F1;fill-rule:nonzero}
    .fil29 {fill:#8B17F1;fill-rule:nonzero}
    .fil30 {fill:#8C17F1;fill-rule:nonzero}
    .fil31 {fill:#8C18F0;fill-rule:nonzero}
    .fil32 {fill:#8D18F0;fill-rule:nonzero}
    .fil33 {fill:#8D19F0;fill-rule:nonzero}
    .fil34 {fill:#8E19F0;fill-rule:nonzero}
    .fil35 {fill:#8E1AF0;fill-rule:nonzero}
    .fil36 {fill:#8F1BEF;fill-rule:nonzero}
    .fil37 {fill:#901CEF;fill-rule:nonzero}
    .fil38 {fill:#911DEF;fill-rule:nonzero}
    .fil39 {fill:#921DEF;fill-rule:nonzero}
    .fil40 {fill:#921EEE;fill-rule:nonzero}
    .fil41 {fill:#931EEE;fill-rule:nonzero}
    .fil42 {fill:#931FEE;fill-rule:nonzero}
    .fil43 {fill:#941FEE;fill-rule:nonzero}
    .fil44 {fill:#9420EE;fill-rule:nonzero}
    .fil45 {fill:#9521ED;fill-rule:nonzero}
    .fil46 {fill:#9622ED;fill-rule:nonzero}
    .fil48 {fill:#9723EC;fill-rule:nonzero}
    .fil47 {fill:#9723ED;fill-rule:nonzero}
    .fil49 {fill:#9824EC;fill-rule:nonzero}
    .fil50 {fill:#9925EC;fill-rule:nonzero}
    .fil52 {fill:#9A26EB;fill-rule:nonzero}
    .fil51 {fill:#9A26EC;fill-rule:nonzero}
    .fil53 {fill:#9B27EB;fill-rule:nonzero}
    .fil54 {fill:#9B28EB;fill-rule:nonzero}
    .fil55 {fill:#9C28EB;fill-rule:nonzero}
    .fil57 {fill:#9D29EA;fill-rule:nonzero}
    .fil56 {fill:#9D29EB;fill-rule:nonzero}
    .fil58 {fill:#9E2AEA;fill-rule:nonzero}
    .fil59 {fill:#9F2BEA;fill-rule:nonzero}
    .fil60 {fill:#A02CE9;fill-rule:nonzero}
    .fil61 {fill:#A12DE9;fill-rule:nonzero}
    .fil62 {fill:#A22EE9;fill-rule:nonzero}
    .fil63 {fill:#A22FE9;fill-rule:nonzero}
    .fil64 {fill:#A32FE8;fill-rule:nonzero}
    .fil65 {fill:#A330E8;fill-rule:nonzero}
    .fil66 {fill:#A430E8;fill-rule:nonzero}
    .fil67 {fill:#A431E8;fill-rule:nonzero}
    .fil68 {fill:#A531E8;fill-rule:nonzero}
    .fil69 {fill:#A532E7;fill-rule:nonzero}
    .fil70 {fill:#A632E7;fill-rule:nonzero}
    .fil71 {fill:#A633E7;fill-rule:nonzero}
    .fil72 {fill:#A733E7;fill-rule:nonzero}
    .fil73 {fill:#A734E7;fill-rule:nonzero}
    .fil74 {fill:#A834E6;fill-rule:nonzero}
    .fil75 {fill:#A935E6;fill-rule:nonzero}
    .fil76 {fill:#A936E6;fill-rule:nonzero}
    .fil77 {fill:#AA36E6;fill-rule:nonzero}
    .fil78 {fill:#AA37E6;fill-rule:nonzero}
    .fil79 {fill:#AB37E6;fill-rule:nonzero}
    .fil80 {fill:#AB38E5;fill-rule:nonzero}
    .fil81 {fill:#AC38E5;fill-rule:nonzero}
    .fil82 {fill:#AC39E5;fill-rule:nonzero}
    .fil83 {fill:#AD39E5;fill-rule:nonzero}
    .fil84 {fill:#AD3AE5;fill-rule:nonzero}
    .fil85 {fill:#AE3AE4;fill-rule:nonzero}
    .fil86 {fill:#AE3BE4;fill-rule:nonzero}
    .fil87 {fill:#AF3BE4;fill-rule:nonzero}
    .fil88 {fill:#AF3CE4;fill-rule:nonzero}
    .fil90 {fill:#B03DE3;fill-rule:nonzero}
    .fil89 {fill:#B03DE4;fill-rule:nonzero}
    .fil91 {fill:#B13EE3;fill-rule:nonzero}
    .fil92 {fill:#B23FE3;fill-rule:nonzero}
    .fil93 {fill:#B340E3;fill-rule:nonzero}
    .fil94 {fill:#B440E2;fill-rule:nonzero}
    .fil95 {fill:#B441E2;fill-rule:nonzero}
    .fil96 {fill:#B541E2;fill-rule:nonzero}
    .fil97 {fill:#B542E2;fill-rule:nonzero}
    .fil98 {fill:#B642E2;fill-rule:nonzero}
    .fil99 {fill:#B643E1;fill-rule:nonzero}
    .fil100 {fill:#B744E1;fill-rule:nonzero}
    .fil101 {fill:#B845E1;fill-rule:nonzero}
    .fil102 {fill:#B946E0;fill-rule:nonzero}
    .fil103 {fill:#BA47E0;fill-rule:nonzero}
    .fil104 {fill:#BB48E0;fill-rule:nonzero}
    .fil105 {fill:#BC49DF;fill-rule:nonzero}
    .fil106 {fill:#BD4ADF;fill-rule:nonzero}
    .fil107 {fill:#BE4BDF;fill-rule:nonzero}
    .fil108 {fill:#BF4CDE;fill-rule:nonzero}
    .fil109 {fill:#C04DDE;fill-rule:nonzero}
    .fil111 {fill:#C14EDD;fill-rule:nonzero}
    .fil110 {fill:#C14EDE;fill-rule:nonzero}
    .fil112 {fill:#C24FDD;fill-rule:nonzero}
    .fil113 {fill:#C250DD;fill-rule:nonzero}
    .fil114 {fill:#C350DD;fill-rule:nonzero}
    .fil115 {fill:#C351DD;fill-rule:nonzero}
    .fil116 {fill:#C451DC;fill-rule:nonzero}
    .fil117 {fill:#C452DC;fill-rule:nonzero}
    .fil118 {fill:#C552DC;fill-rule:nonzero}
    .fil119 {fill:#C553DC;fill-rule:nonzero}
    .fil120 {fill:#C653DC;fill-rule:nonzero}
    .fil121 {fill:#C654DC;fill-rule:nonzero}
    .fil122 {fill:#C754DB;fill-rule:nonzero}
    .fil123 {fill:#C755DB;fill-rule:nonzero}
    .fil124 {fill:#C855DB;fill-rule:nonzero}
    .fil125 {fill:#C856DB;fill-rule:nonzero}
    .fil126 {fill:#C956DB;fill-rule:nonzero}
    .fil127 {fill:#C957DB;fill-rule:nonzero}
    .fil128 {fill:#CA57DA;fill-rule:nonzero}
    .fil129 {fill:#CA58DA;fill-rule:nonzero}
    .fil130 {fill:#CB58DA;fill-rule:nonzero}
    .fil131 {fill:#CB59DA;fill-rule:nonzero}
    .fil132 {fill:#CC59DA;fill-rule:nonzero}
    .fil133 {fill:#CC5AD9;fill-rule:nonzero}
    .fil134 {fill:#CD5AD9;fill-rule:nonzero}
    .fil135 {fill:#CD5BD9;fill-rule:nonzero}
    .fil136 {fill:#CE5BD9;fill-rule:nonzero}
    .fil137 {fill:#CE5CD9;fill-rule:nonzero}
    .fil138 {fill:#CF5CD9;fill-rule:nonzero}
    .fil139 {fill:#CF5DD8;fill-rule:nonzero}
    .fil140 {fill:#D05DD8;fill-rule:nonzero}
    .fil141 {fill:#D05ED8;fill-rule:nonzero}
    .fil142 {fill:#D15FD8;fill-rule:nonzero}
    .fil143 {fill:#D260D7;fill-rule:nonzero}
    .fil144 {fill:#D361D7;fill-rule:nonzero}
    .fil145 {fill:#D462D7;fill-rule:nonzero}
    .fil146 {fill:#D563D6;fill-rule:nonzero}
    .fil147 {fill:#D664D6;fill-rule:nonzero}
    .fil149 {fill:#D765D5;fill-rule:nonzero}
    .fil148 {fill:#D765D6;fill-rule:nonzero}
    .fil150 {fill:#D866D5;fill-rule:nonzero}
    .fil151 {fill:#D967D5;fill-rule:nonzero}
    .fil153 {fill:#DA68D4;fill-rule:nonzero}
    .fil152 {fill:#DA68D5;fill-rule:nonzero}
    .fil154 {fill:#DB69D4;fill-rule:nonzero}
    .fil155 {fill:#DC6AD4;fill-rule:nonzero}
    .fil157 {fill:#DD6BD3;fill-rule:nonzero}
    .fil156 {fill:#DD6BD4;fill-rule:nonzero}
    .fil158 {fill:#DE6CD3;fill-rule:nonzero}
    .fil159 {fill:#DE6DD3;fill-rule:nonzero}
    .fil160 {fill:#DF6DD3;fill-rule:nonzero}
    .fil161 {fill:#DF6ED3;fill-rule:nonzero}
    .fil162 {fill:#E06ED2;fill-rule:nonzero}
    .fil163 {fill:#E06FD2;fill-rule:nonzero}
    .fil164 {fill:#E16FD2;fill-rule:nonzero}
    .fil165 {fill:#E170D2;fill-rule:nonzero}
    .fil166 {fill:#E270D2;fill-rule:nonzero}
    .fil167 {fill:#E271D1;fill-rule:nonzero}
    .fil168 {fill:#E371D1;fill-rule:nonzero}
    .fil169 {fill:#E372D1;fill-rule:nonzero}
    .fil170 {fill:#E472D1;fill-rule:nonzero}
    .fil171 {fill:#E473D1;fill-rule:nonzero}
    .fil172 {fill:#E573D1;fill-rule:nonzero}
    .fil173 {fill:#E574D0;fill-rule:nonzero}
    .fil174 {fill:#E674D0;fill-rule:nonzero}
    .fil175 {fill:#E675D0;fill-rule:nonzero}
    .fil176 {fill:#E775D0;fill-rule:nonzero}
    .fil177 {fill:#E776D0;fill-rule:nonzero}
    .fil178 {fill:#E876D0;fill-rule:nonzero}
    .fil179 {fill:#E877CF;fill-rule:nonzero}
    .fil180 {fill:#E977CF;fill-rule:nonzero}
    .fil181 {fill:#E978CF;fill-rule:nonzero}
    .fil182 {fill:#EA78CF;fill-rule:nonzero}
    .fil183 {fill:#EA79CF;fill-rule:nonzero}
    .fil184 {fill:#EB79CF;fill-rule:nonzero}
    .fil185 {fill:#EB7ACE;fill-rule:nonzero}
    .fil186 {fill:#EC7ACE;fill-rule:nonzero}
    .fil187 {fill:#EC7BCE;fill-rule:nonzero}
    .fil188 {fill:#ED7CCE;fill-rule:nonzero}
    .fil189 {fill:#EE7DCD;fill-rule:nonzero}
    .fil190 {fill:#EF7ECD;fill-rule:nonzero}
    .fil192 {fill:#F07FCC;fill-rule:nonzero}
    .fil191 {fill:#F07FCD;fill-rule:nonzero}
    .fil193 {fill:#F180CC;fill-rule:nonzero}
    .fil194 {fill:#F281CC;fill-rule:nonzero}
    .fil196 {fill:#F382CB;fill-rule:nonzero}
    .fil195 {fill:#F382CC;fill-rule:nonzero}
    .fil197 {fill:#F483CB;fill-rule:nonzero}
    .fil198 {fill:#F584CB;fill-rule:nonzero}
    .fil200 {fill:#F685CA;fill-rule:nonzero}
    .fil199 {fill:#F685CB;fill-rule:nonzero}
    .fil201 {fill:#F786CA;fill-rule:nonzero}
    .fil202 {fill:#F887CA;fill-rule:nonzero}
    .fil204 {fill:#F988C9;fill-rule:nonzero}
    .fil203 {fill:#F988CA;fill-rule:nonzero}
    .fil2 {fill:#FA89C9;fill-rule:nonzero}
   ]]>
  </style>
    <clipPath id="id0">
     <path d="M45195.68 20890.85l22855.93 -15.62 0 7785.93 -22855.93 15.63 0 -7785.94z"/>
    </clipPath>
   <clipPath id="id1">
    <path d="M45313.27 21008.35l22633.24 2.25 0 7549.62 -22633.24 -2.25 0 -7549.62z"/>
   </clipPath>
    <clipPath id="id2" style="clip-rule:nonzero">
     <path d="M49385.64 21979.47l0 2684.01 -1558.97 -2322.39 -241.08 -361.62 -96.44 0 0 3238.48 0 2041.14 -956.27 0 0 -5279.62 -337.51 0 0 5617.12 1639.33 0 0 -2692.03 1792.01 2692.03 1398.26 0 0 -5617.12 -1639.33 0zm425.9 5279.62l-1984.87 -2965.27 0 -1341.99 1896.48 2828.64 0 -3463.48 964.31 0 0 4942.1 -875.92 0zm3624.21 -1751.85l1719.69 0 0 -1494.67 -1719.69 0 0 -474.13 1960.77 0 0 -1558.97 -3592.07 0 0 2370.6 3013.48 0 0 819.67 -3013.48 0 0 2426.85 3656.35 0 0 -1550.93 -2025.05 0 0 -538.42zm-337.51 -1494.67l-956.28 0 0 -1695.58 2917.04 0 0 883.95 -1960.76 0 0 811.63zm2025.06 3246.52l-2981.34 0 0 -1751.85 956.28 0 0 875.92 2025.06 0 0 875.93zm5705.51 -4556.39c-361.62,-377.68 -827.7,-626.79 -1350.04,-747.33 -104.47,-32.15 -225,-48.22 -337.51,-64.29l0 1615.22c128.58,32.14 241.08,88.4 337.51,160.72 353.58,249.11 522.34,683.05 522.34,1108.96 0,634.84 -385.73,1317.89 -1221.47,1317.89 -835.74,0 -1213.42,-683.05 -1213.42,-1317.89 0,-425.91 168.76,-867.88 530.37,-1116.99 96.43,-72.32 208.93,-128.58 337.51,-160.73l0 -345.53c-120.54,24.1 -241.08,64.28 -337.51,112.49 -578.58,281.26 -875.92,891.99 -875.92,1510.76 0,819.67 538.41,1655.4 1558.97,1655.4 1020.57,0 1558.98,-835.73 1558.98,-1655.4 0,-610.73 -289.3,-1229.5 -859.85,-1502.72l0 -972.34c1084.85,281.25 1816.12,1237.52 1816.12,2475.06 0,1486.65 -1052.71,2563.46 -2515.25,2563.46 -1454.5,0 -2515.24,-1076.81 -2515.24,-2563.46 0,-1245.57 739.3,-2193.81 1832.19,-2483.1 104.47,-24.12 216.97,-48.22 337.51,-56.26l0 -345.54c-120.54,16.07 -233.04,32.14 -337.51,56.25 -530.37,120.54 -996.45,377.69 -1366.11,755.37 -514.29,530.38 -803.59,1269.68 -803.59,2073.28 0,803.59 289.3,1542.9 803.59,2073.27 522.33,538.41 1253.61,827.7 2049.16,827.7 803.6,0 1526.83,-289.29 2049.17,-827.7 522.33,-530.37 803.58,-1269.68 803.58,-2073.27 0,-803.6 -281.25,-1542.9 -803.58,-2073.28zm4572.45 -723.23l0 2684.01 -1558.97 -2322.39 -241.08 -361.62 -96.44 0 0 3238.48 0 2041.14 -956.27 0 0 -5279.62 -337.51 0 0 5617.12 1639.33 0 0 -2692.03 1792.01 2692.03 1398.25 0 0 -5617.12 -1639.32 0zm425.9 5279.62l-1984.87 -2965.27 0 -1341.99 1896.47 2828.64 0 -3463.48 964.32 0 0 4942.1 -875.92 0z"/>
    </clipPath>
   <clipPath id="id3">
    <path d="M24071.87 21574.23l48164.58 0 -795.43 17518.59 -48164.57 0 795.42 -17518.59z"/>
   </clipPath>
 </defs>
 <g id="Capa_x0020_1">
  <metadata id="CorelCorpID_0Corel-Layer"/>
  <path class="fil0" d="M68272.86 11646.72c6.49,103.84 -1149.03,1914.44 -1219.09,2015.28 -107.4,154.61 -5510.28,4530.42 -5679.53,4018.39 -197.81,-598.45 4942.89,-6767 6898.62,-6033.67zm5506.07 -7048.72c-1136.09,751.02 -2487.35,2704.32 -3297.78,3851.02 -608.08,860.38 -1208.92,1715.03 -1783.96,2598.42 -334.98,540.91 -174.46,264.58 -618.95,108.13 -1644.57,-578.84 -4805.07,1612.65 -6069.82,2845.08 -971.57,946.74 -1208.84,1661.77 -2489.6,2533.22 -530.91,361.23 -1398.51,1235.98 -2066.79,1290.45 48.56,-980.76 2231.52,-3767.61 3040.23,-4857.86 488.62,-658.7 767.46,-543.5 329.89,-1281.32 -542.48,-914.7 -1153.53,-370.23 -1952.26,143.43 -761.43,489.67 -3720.97,2821.45 -4379.68,3534.44 -265.3,287.16 -1411.63,1276.56 -1564.19,1606.08 385.05,-890.25 2856.85,-4188.63 3524.85,-4627.74 224.93,-147.86 230.69,-57.24 447.06,-40.6 -2.71,-440.86 -595.73,-1065.65 -1050.09,-1205.71 -461.28,-142.19 -1035.89,654.8 -1281.32,948.13 -540.88,646.41 -1040.03,1306.98 -1518.77,1995.63 -290.46,417.84 -4943.2,4486.44 -4806.7,3656.68 126.17,-766.91 1820.99,-3278.31 2617.54,-3755.34 33.5,-324.57 -369.01,-782.65 -610.11,-984.33 -375.04,-313.72 -1127.46,520.61 -1387.17,755.65 -1305.8,1181.74 -2666.96,2332.98 -4168.65,3265.55 -1085.51,674.11 -2311.21,1603.6 -586.14,-828.56 1312.28,-1850.19 3279.47,-3817.94 5533.57,-4433.46 1142.9,-312.08 1880.06,221.62 1399.87,1358.21 -24.31,70.6 -30.94,42.36 -46.79,104.39 297.54,-81.12 770.85,-1359.93 -241.03,-1870.49 -1462.35,-737.86 -3781.42,323.23 -5013.07,1129.6 -1520.47,995.45 -3460.29,2721.29 -3997.73,4537.79 -313.91,1060.98 659.02,2007.91 1114.63,1857.81 1302.86,-429.21 4834.93,-3711.3 5001.18,-3786.05 -1,6.15 -243.53,389.08 -269.53,424.25 -314.4,425.26 -532.78,989.71 -766.65,1461.22 -269.98,746.28 -369.38,1227.09 360.33,1782.62 566.68,431.43 1498.75,-285.02 1987.14,-678.79 1002.52,-808.29 1945.66,-1693.63 2844.71,-2619.24 74.73,-76.93 125.41,-167.12 247.13,-198.92 -419.75,746.94 -1022.33,1630.36 -1225.86,2472.88 -219.11,907.01 568.1,1239.98 769.24,1439.41 80.34,-28.96 242.6,54.41 312.88,-13.46 98.54,12.3 -265.69,-51 -17.83,-601.43 827.49,-1837.64 6553.99,-6255.66 7011.35,-6075.02 -894.58,977.02 -3708.83,4466.85 -3114.99,5618.32 113.06,219.24 276.56,428.35 438.07,565.36 264.07,224.03 333.61,235.53 718.39,141.26 902.85,-221.21 2663.97,-2049.32 2890.01,-2104.07 -70.09,435.77 -589.46,825.62 188.44,1802.85 81.57,102.47 297.87,344.27 461.96,384.81 1028.29,254.09 5360.17,-4149.03 5765.16,-4223.55l-1009.85 2030.51c-248.27,610.77 -529.43,1120.65 -137.4,1630.23 161.01,209.28 669.86,727.07 1159.2,537.61 1100.02,-425.9 2901.84,-2344.8 3787.14,-3188.21 -106.89,603.01 -1361.16,1985.28 -510.06,2835.09 660.61,659.61 1309.14,203.78 1933.42,-303.5 1672.18,-1358.78 3004.8,-2858.11 4553.69,-4316.39 -786.61,1012.63 -1565.86,1958.8 -2220.12,3054.9 -1776.33,2975.94 -3347.06,5596.6 -4655.67,8820.92 -192.44,474.08 -252.13,1033.97 -21.49,1512.8 161.5,335.3 471.79,657.93 1018.48,529.13 148.02,-312.25 269.55,-643.08 427.5,-954.55 660.16,-1243.88 1984.11,-3060.53 2897.62,-4095.3 188.74,-213.8 2102.69,-2107.04 2268.53,-2242.3 -45.1,-52.29 -135.35,-37.81 -247.04,14.39 -363.98,170.15 -1339.17,1070.92 -1687.3,1397.57 -1104,1035.89 -2108.72,2129.53 -3052.83,3339.76 43.19,-341.22 3462.99,-6312.58 4519.19,-7842.55 1091.94,-1581.74 1960.5,-2700.49 3307.71,-4264.31 361.53,-419.66 693.64,-911.8 1207.18,-812.18 -161.57,-533.93 -741.27,-1575.78 -1338.03,-1184.88 -892.28,584.49 -3391.16,3465.54 -4598.96,4400.23 -529.5,409.77 -2440.93,2222.62 -2958.44,2193.61 -38.31,-765.32 2226.57,-4266.23 3300.65,-5132.5 308.88,-249.12 294.12,-186.35 617.94,-159.53 -6.89,-456.21 -910.96,-1771.01 -1645.76,-962.08 -471.28,518.83 -1124.88,1169.04 -1562.9,1791.29 -1186.12,1685.03 -774.89,1199.75 -2346.27,2615.91 -500.41,450.98 -2328.86,2044.14 -2941.9,1990.78 840.97,-2195.95 6871.35,-11530.73 8668.68,-12518.21 304.66,-167.39 394.71,-63.42 542.41,-62.56 -46.31,-499.72 -1288.72,-999.34 -1953.49,-682.43z"/>
  <path class="fil1" d="M24577.12 10980.26c1805.9,273.11 2717.06,3173.5 1005.39,5347.56 -1568.82,1992.6 -4716.7,1411.48 -4421.7,-2120.26 69.03,-826.41 464.31,-1598.66 860.65,-2103.73 576.61,-734.81 1608.15,-1266.85 2555.66,-1123.57zm2631.27 -9962.26c-1851.72,2106.95 -2352.18,4466 -2299.75,7323.46 13.04,710.7 24.95,915.52 2.31,1158.4 -100.02,12.52 -217,21.87 -510.57,-9.53 -73.29,-720 -114.29,-2050.88 -449.83,-3095.86 -492.22,-1532.9 -1042.09,-3265.85 -2265.34,-4391.99 -234.92,-216.26 -391.85,-367.34 -614.36,-270.23 -2598.09,1133.88 -2863.52,2984.61 -2250.67,5609.12 25.16,78.76 43.18,300.02 137.27,329.72 103.6,-123.56 715.36,-607.73 1111.66,-1074.65 1069.82,-1260.48 1292.26,-3106.74 1354.06,-3184.42 207.91,176.16 -22.27,339.68 376.65,987.56 595.11,966.51 1196.67,2102.73 1357.45,3227.74 36.25,218.65 115.31,501.94 110.54,725.4 -91.49,-50.51 -420.01,-696.97 -499.73,-825.39 -200.63,-323.2 -1366.18,-1693.78 -1783.2,-1784.21 -63.94,194.34 -263.71,430.15 -347.84,629.54 169.83,251.32 2150.72,1560.31 2125.57,2933.86 -13.96,762.36 -721.18,431.88 -1911.64,1626.87 -2430.88,2440.14 -2055.97,7090.17 1653.56,7944.34 4880.17,1123.73 7944.89,-5500.69 4388.42,-8482.33 -221.81,-185.96 -569.52,-298.67 -755.12,-507.03 48.17,-106.64 800.32,-903.9 967.79,-1175.95 484.49,-787.04 918.19,-1643.75 1189.2,-2488.59 489.23,-1525.12 697.57,-3875.86 151.96,-5418.95 -68.23,-192.94 -168.84,-621.39 -263.41,-704.24 -357.27,207.6 -640.69,676.68 -974.98,917.36zm-24623.33 4662.68c-268.36,1345.69 -2623.32,12848.49 -2587.93,13047.07 1229.32,13.55 8247.54,-13.09 8442.59,-16.76 16.34,-199.16 306.16,-1536.01 335.44,-1648.32 -207.83,-16.14 -6438.57,-43.83 -6570.26,-40.52 33.24,-179.25 833.7,-4103.51 886.3,-4361.39l6348.38 0c129.15,-557.33 285.05,-1226.72 361.62,-1647.36 -220.4,-18.71 -6225.63,-82.79 -6331.47,-80.37 26.77,-179.21 157.09,-970.31 192.79,-1136.3 136.69,-635.45 461.58,-2420.04 508.49,-2629.04 171.59,-10.14 6535.71,39.41 6635.24,-28.75 68.42,-46.86 365.37,-1670.62 365.37,-1670.64 -560.71,-48.67 -8414.12,-29.35 -8551.34,10.59l-35.22 201.79zm14813.16 10776.6c-484.76,123.55 -1951.12,1478.49 -3466.76,673.02 -2452.42,-1303.32 -1138.43,-7037.19 2907.01,-5900.54 687.88,193.28 1378.09,832.44 1464.12,871.72 44.13,-134.46 352.03,-1607.11 355.29,-1728.95 -1807.43,-1188.42 -4049.99,-1174.66 -5753.01,148.97 -3997.6,3107.04 -1967.97,10367.71 3918.78,7937.2 284.54,-117.48 150.27,-78.63 282.03,-586.59 93.02,-358.63 266.09,-1057.47 292.54,-1414.83zm4778.3 6429.19c0,23.61 43.23,45.27 31.1,0 -12.16,-45.39 51.11,-0.54 -9.28,-5.95 -25.3,-2.27 -21.82,-34.89 -21.82,5.95zm40.18 40.17c0,23.63 43.23,45.28 31.1,0 -12.16,-45.38 51.11,-0.53 -9.28,-5.94 -25.31,-2.27 -21.82,-34.89 -21.82,5.94zm160.72 180.81c-1.31,-58.99 -5.63,-81.24 -69.23,-131.66 -30.67,-24.32 -10.02,-14.1 -51.31,-29.05 1.31,59 5.64,81.25 69.23,131.67 30.67,24.32 10.02,14.1 51.31,29.04z"/>
  <path class="fil0" d="M44611.21 4922.15c-2215.87,1372.11 -4325.07,4214.18 -5922.08,6251.02 -86.31,110.08 -567.81,136.51 -844.47,197.35 -848.01,186.47 -7368.88,1407.12 -4886.41,3687.01 56.45,51.84 46.41,41.3 114.8,54.19 50.67,-307.5 -10.74,-319.52 288.85,-647.62 809.13,-886.12 4091.41,-2132.62 4433.59,-2095.09 -1016.22,1557.54 -4722.45,7222.78 -4463.84,9512.53 51.94,459.89 486.04,911.82 1244.73,325.24l562.67 -491.47c-1191.32,631.64 -1299.46,377.46 -743.47,-1016.34 920.61,-2307.85 4341.91,-6886.89 5695.56,-8647.2 116.35,-151.3 175.18,-295.54 423.96,-340.32 1417.01,-255.06 3988.96,-527.07 5488.49,-290.2 7.87,1.43 46.96,1.28 95.59,34.12 57.23,-35.58 203.87,20.75 212.4,-26.73 -1818.01,-772.3 -3550.03,-555.8 -5306.55,-482.76 24.11,-131.15 1750.16,-2143.32 2051.24,-2436.95 979.75,-955.49 1513.98,-1667.97 2610.24,-2373.05 194.28,-187.93 703.23,-337.14 1031.46,-15.15 47.02,-347.58 -516.75,-1205.87 -1373.71,-1356.92 -304.38,-53.66 -476.7,53.96 -713.05,158.34z"/>
  <path class="fil0" d="M32260.94 11692.68c-310.82,-222.97 -3658.91,-926.99 -1507.57,-3312.01 1658.19,-1838.31 5419.66,-3368.88 7866.29,-3985.15 1309.86,-329.93 3907.97,-844.15 5294.03,-955.07 1423.35,-113.9 2735.84,-204.57 4178.69,-184.69 2607.95,35.92 6492.65,402.64 9109.86,885.01 182.44,33.62 840.66,252.46 986.96,192.2 -193.54,-446.53 -4725.22,-1327.22 -5482.51,-1393.6 -926.87,-81.24 -2734.06,-390.18 -3730.35,-390.52 -367.13,-0.13 -978.03,-62.42 -1325.93,-62.03 -3068.74,3.44 -5830.79,182.61 -8867.9,763.44 -2855.61,546.12 -7676,1874.27 -9374.86,4387.03 -843.06,1246.96 -1061.93,2866.94 617.86,3604.81 532.62,233.95 1793.57,568.87 2235.43,450.58z"/>
  <g>
   <g style="clip-path:url(#id0)">
    <image x="45195.68" y="20875.23" width="22855.93" height="7801.56" xlink:href="logo ECO FANDY_Images\logo ECO FANDY_ImgID1.png"/>
   </g>
  </g>
  <g style="clip-path:url(#id1)">
   <image x="45313.27" y="21008.35" width="22633.24" height="7551.87" xlink:href="logo ECO FANDY_Images\logo ECO FANDY_ImgID2.png"/>
  </g>
  <g>
   <g style="clip-path:url(#id2)">
    <polygon class="fil2" points="46195.37,21891.08 46236.09,21891.08 46236.09,27676.95 46195.37,27676.95 "/>
    <polygon id="_1" class="fil3" points="46195.37,21891.08 46317.51,21891.08 46317.51,27676.95 46195.37,27676.95 "/>
    <polygon id="_2" class="fil4" points="46276.8,21891.08 46398.94,21891.08 46398.94,27676.95 46276.8,27676.95 "/>
    <polygon id="_3" class="fil4" points="46358.23,21891.08 46480.37,21891.08 46480.37,27676.95 46358.23,27676.95 "/>
    <polygon id="_4" class="fil5" points="46439.65,21891.08 46561.79,21891.08 46561.79,27676.95 46439.65,27676.95 "/>
    <polygon id="_5" class="fil5" points="46521.08,21891.08 46643.22,21891.08 46643.22,27676.95 46521.08,27676.95 "/>
    <polygon id="_6" class="fil6" points="46602.51,21891.08 46724.65,21891.08 46724.65,27676.95 46602.51,27676.95 "/>
    <polygon id="_7" class="fil6" points="46683.93,21891.08 46806.07,21891.08 46806.07,27676.95 46683.93,27676.95 "/>
    <polygon id="_8" class="fil7" points="46765.36,21891.08 46887.5,21891.08 46887.5,27676.95 46765.36,27676.95 "/>
    <polygon id="_9" class="fil8" points="46846.79,21891.08 46968.93,21891.08 46968.93,27676.95 46846.79,27676.95 "/>
    <polygon id="_10" class="fil9" points="46928.21,21891.08 47050.35,21891.08 47050.35,27676.95 46928.21,27676.95 "/>
    <polygon id="_11" class="fil9" points="47009.64,21891.08 47131.78,21891.08 47131.78,27676.95 47009.64,27676.95 "/>
    <polygon id="_12" class="fil10" points="47091.07,21891.08 47213.21,21891.08 47213.21,27676.95 47091.07,27676.95 "/>
    <polygon id="_13" class="fil10" points="47172.49,21891.08 47294.63,21891.08 47294.63,27676.95 47172.49,27676.95 "/>
    <polygon id="_14" class="fil11" points="47253.92,21891.08 47376.06,21891.08 47376.06,27676.95 47253.92,27676.95 "/>
    <polygon id="_15" class="fil12" points="47335.35,21891.08 47457.49,21891.08 47457.49,27676.95 47335.35,27676.95 "/>
    <polygon id="_16" class="fil13" points="47416.77,21891.08 47538.91,21891.08 47538.91,27676.95 47416.77,27676.95 "/>
    <polygon id="_17" class="fil14" points="47498.2,21891.08 47620.34,21891.08 47620.34,27676.95 47498.2,27676.95 "/>
    <polygon id="_18" class="fil15" points="47579.63,21891.08 47701.77,21891.08 47701.77,27676.95 47579.63,27676.95 "/>
    <polygon id="_19" class="fil16" points="47661.05,21891.08 47783.19,21891.08 47783.19,27676.95 47661.05,27676.95 "/>
    <polygon id="_20" class="fil17" points="47742.48,21891.08 47864.62,21891.08 47864.62,27676.95 47742.48,27676.95 "/>
    <polygon id="_21" class="fil18" points="47823.91,21891.08 47946.05,21891.08 47946.05,27676.95 47823.91,27676.95 "/>
    <polygon id="_22" class="fil19" points="47905.33,21891.08 48027.47,21891.08 48027.47,27676.95 47905.33,27676.95 "/>
    <polygon id="_23" class="fil20" points="47986.76,21891.08 48108.9,21891.08 48108.9,27676.95 47986.76,27676.95 "/>
    <polygon id="_24" class="fil20" points="48068.19,21891.08 48190.33,21891.08 48190.33,27676.95 48068.19,27676.95 "/>
    <polygon id="_25" class="fil21" points="48149.61,21891.08 48271.75,21891.08 48271.75,27676.95 48149.61,27676.95 "/>
    <polygon id="_26" class="fil21" points="48231.04,21891.08 48353.18,21891.08 48353.18,27676.95 48231.04,27676.95 "/>
    <polygon id="_27" class="fil22" points="48312.47,21891.08 48434.61,21891.08 48434.61,27676.95 48312.47,27676.95 "/>
    <polygon id="_28" class="fil23" points="48393.89,21891.08 48516.03,21891.08 48516.03,27676.95 48393.89,27676.95 "/>
    <polygon id="_29" class="fil24" points="48475.32,21891.08 48597.46,21891.08 48597.46,27676.95 48475.32,27676.95 "/>
    <polygon id="_30" class="fil25" points="48556.75,21891.08 48678.89,21891.08 48678.89,27676.95 48556.75,27676.95 "/>
    <polygon id="_31" class="fil26" points="48638.17,21891.08 48760.31,21891.08 48760.31,27676.95 48638.17,27676.95 "/>
    <polygon id="_32" class="fil27" points="48719.6,21891.08 48841.74,21891.08 48841.74,27676.95 48719.6,27676.95 "/>
    <polygon id="_33" class="fil28" points="48801.03,21891.08 48923.17,21891.08 48923.17,27676.95 48801.03,27676.95 "/>
    <polygon id="_34" class="fil29" points="48882.45,21891.08 49004.59,21891.08 49004.59,27676.95 48882.45,27676.95 "/>
    <polygon id="_35" class="fil30" points="48963.88,21891.08 49086.02,21891.08 49086.02,27676.95 48963.88,27676.95 "/>
    <polygon id="_36" class="fil31" points="49045.31,21891.08 49167.45,21891.08 49167.45,27676.95 49045.31,27676.95 "/>
    <polygon id="_37" class="fil32" points="49126.73,21891.08 49248.87,21891.08 49248.87,27676.95 49126.73,27676.95 "/>
    <polygon id="_38" class="fil33" points="49208.16,21891.08 49330.3,21891.08 49330.3,27676.95 49208.16,27676.95 "/>
    <polygon id="_39" class="fil34" points="49289.59,21891.08 49411.73,21891.08 49411.73,27676.95 49289.59,27676.95 "/>
    <polygon id="_40" class="fil35" points="49371.01,21891.08 49493.15,21891.08 49493.15,27676.95 49371.01,27676.95 "/>
    <polygon id="_41" class="fil36" points="49452.44,21891.08 49574.58,21891.08 49574.58,27676.95 49452.44,27676.95 "/>
    <polygon id="_42" class="fil36" points="49533.87,21891.08 49656.01,21891.08 49656.01,27676.95 49533.87,27676.95 "/>
    <polygon id="_43" class="fil37" points="49615.29,21891.08 49737.43,21891.08 49737.43,27676.95 49615.29,27676.95 "/>
    <polygon id="_44" class="fil37" points="49696.72,21891.08 49818.86,21891.08 49818.86,27676.95 49696.72,27676.95 "/>
    <polygon id="_45" class="fil38" points="49778.15,21891.08 49900.29,21891.08 49900.29,27676.95 49778.15,27676.95 "/>
    <polygon id="_46" class="fil39" points="49859.57,21891.08 49981.71,21891.08 49981.71,27676.95 49859.57,27676.95 "/>
    <polygon id="_47" class="fil40" points="49941,21891.08 50063.14,21891.08 50063.14,27676.95 49941,27676.95 "/>
    <polygon id="_48" class="fil41" points="50022.42,21891.08 50144.56,21891.08 50144.56,27676.95 50022.42,27676.95 "/>
    <polygon id="_49" class="fil42" points="50103.85,21891.08 50225.99,21891.08 50225.99,27676.95 50103.85,27676.95 "/>
    <polygon id="_50" class="fil43" points="50185.28,21891.08 50307.42,21891.08 50307.42,27676.95 50185.28,27676.95 "/>
    <polygon id="_51" class="fil44" points="50266.7,21891.08 50388.84,21891.08 50388.84,27676.95 50266.7,27676.95 "/>
    <polygon id="_52" class="fil45" points="50348.13,21891.08 50470.27,21891.08 50470.27,27676.95 50348.13,27676.95 "/>
    <polygon id="_53" class="fil45" points="50429.56,21891.08 50551.7,21891.08 50551.7,27676.95 50429.56,27676.95 "/>
    <polygon id="_54" class="fil46" points="50510.98,21891.08 50633.12,21891.08 50633.12,27676.95 50510.98,27676.95 "/>
    <polygon id="_55" class="fil46" points="50592.41,21891.08 50714.55,21891.08 50714.55,27676.95 50592.41,27676.95 "/>
    <polygon id="_56" class="fil47" points="50673.84,21891.08 50795.98,21891.08 50795.98,27676.95 50673.84,27676.95 "/>
    <polygon id="_57" class="fil48" points="50755.26,21891.08 50877.4,21891.08 50877.4,27676.95 50755.26,27676.95 "/>
    <polygon id="_58" class="fil49" points="50836.69,21891.08 50958.83,21891.08 50958.83,27676.95 50836.69,27676.95 "/>
    <polygon id="_59" class="fil49" points="50918.12,21891.08 51040.26,21891.08 51040.26,27676.95 50918.12,27676.95 "/>
    <polygon id="_60" class="fil50" points="50999.54,21891.08 51121.68,21891.08 51121.68,27676.95 50999.54,27676.95 "/>
    <polygon id="_61" class="fil50" points="51080.97,21891.08 51203.11,21891.08 51203.11,27676.95 51080.97,27676.95 "/>
    <polygon id="_62" class="fil51" points="51162.4,21891.08 51284.54,21891.08 51284.54,27676.95 51162.4,27676.95 "/>
    <polygon id="_63" class="fil52" points="51243.82,21891.08 51365.96,21891.08 51365.96,27676.95 51243.82,27676.95 "/>
    <polygon id="_64" class="fil53" points="51325.25,21891.08 51447.39,21891.08 51447.39,27676.95 51325.25,27676.95 "/>
    <polygon id="_65" class="fil54" points="51406.68,21891.08 51528.82,21891.08 51528.82,27676.95 51406.68,27676.95 "/>
    <polygon id="_66" class="fil55" points="51488.1,21891.08 51610.24,21891.08 51610.24,27676.95 51488.1,27676.95 "/>
    <polygon id="_67" class="fil56" points="51569.53,21891.08 51691.67,21891.08 51691.67,27676.95 51569.53,27676.95 "/>
    <polygon id="_68" class="fil57" points="51650.96,21891.08 51773.1,21891.08 51773.1,27676.95 51650.96,27676.95 "/>
    <polygon id="_69" class="fil58" points="51732.38,21891.08 51854.52,21891.08 51854.52,27676.95 51732.38,27676.95 "/>
    <polygon id="_70" class="fil58" points="51813.81,21891.08 51935.95,21891.08 51935.95,27676.95 51813.81,27676.95 "/>
    <polygon id="_71" class="fil59" points="51895.24,21891.08 52017.38,21891.08 52017.38,27676.95 51895.24,27676.95 "/>
    <polygon id="_72" class="fil59" points="51976.66,21891.08 52098.8,21891.08 52098.8,27676.95 51976.66,27676.95 "/>
    <polygon id="_73" class="fil60" points="52058.09,21891.08 52180.23,21891.08 52180.23,27676.95 52058.09,27676.95 "/>
    <polygon id="_74" class="fil60" points="52139.52,21891.08 52261.66,21891.08 52261.66,27676.95 52139.52,27676.95 "/>
    <polygon id="_75" class="fil61" points="52220.94,21891.08 52343.08,21891.08 52343.08,27676.95 52220.94,27676.95 "/>
    <polygon id="_76" class="fil61" points="52302.37,21891.08 52424.51,21891.08 52424.51,27676.95 52302.37,27676.95 "/>
    <polygon id="_77" class="fil62" points="52383.8,21891.08 52505.94,21891.08 52505.94,27676.95 52383.8,27676.95 "/>
    <polygon id="_78" class="fil63" points="52465.22,21891.08 52587.36,21891.08 52587.36,27676.95 52465.22,27676.95 "/>
    <polygon id="_79" class="fil64" points="52546.65,21891.08 52668.79,21891.08 52668.79,27676.95 52546.65,27676.95 "/>
    <polygon id="_80" class="fil65" points="52628.08,21891.08 52750.22,21891.08 52750.22,27676.95 52628.08,27676.95 "/>
    <polygon id="_81" class="fil66" points="52709.5,21891.08 52831.64,21891.08 52831.64,27676.95 52709.5,27676.95 "/>
    <polygon id="_82" class="fil67" points="52790.93,21891.08 52913.07,21891.08 52913.07,27676.95 52790.93,27676.95 "/>
    <polygon id="_83" class="fil68" points="52872.36,21891.08 52994.5,21891.08 52994.5,27676.95 52872.36,27676.95 "/>
    <polygon id="_84" class="fil69" points="52953.78,21891.08 53075.92,21891.08 53075.92,27676.95 52953.78,27676.95 "/>
    <polygon id="_85" class="fil70" points="53035.21,21891.08 53157.35,21891.08 53157.35,27676.95 53035.21,27676.95 "/>
    <polygon id="_86" class="fil71" points="53116.64,21891.08 53238.78,21891.08 53238.78,27676.95 53116.64,27676.95 "/>
    <polygon id="_87" class="fil72" points="53198.06,21891.08 53320.2,21891.08 53320.2,27676.95 53198.06,27676.95 "/>
    <polygon id="_88" class="fil73" points="53279.49,21891.08 53401.63,21891.08 53401.63,27676.95 53279.49,27676.95 "/>
    <polygon id="_89" class="fil74" points="53360.92,21891.08 53483.06,21891.08 53483.06,27676.95 53360.92,27676.95 "/>
    <polygon id="_90" class="fil75" points="53442.34,21891.08 53564.48,21891.08 53564.48,27676.95 53442.34,27676.95 "/>
    <polygon id="_91" class="fil76" points="53523.77,21891.08 53645.91,21891.08 53645.91,27676.95 53523.77,27676.95 "/>
    <polygon id="_92" class="fil77" points="53605.2,21891.08 53727.34,21891.08 53727.34,27676.95 53605.2,27676.95 "/>
    <polygon id="_93" class="fil78" points="53686.62,21891.08 53808.76,21891.08 53808.76,27676.95 53686.62,27676.95 "/>
    <polygon id="_94" class="fil79" points="53768.05,21891.08 53890.19,21891.08 53890.19,27676.95 53768.05,27676.95 "/>
    <polygon id="_95" class="fil80" points="53849.48,21891.08 53971.61,21891.08 53971.61,27676.95 53849.48,27676.95 "/>
    <polygon id="_96" class="fil81" points="53930.9,21891.08 54053.04,21891.08 54053.04,27676.95 53930.9,27676.95 "/>
    <polygon id="_97" class="fil82" points="54012.33,21891.08 54134.47,21891.08 54134.47,27676.95 54012.33,27676.95 "/>
    <polygon id="_98" class="fil83" points="54093.75,21891.08 54215.89,21891.08 54215.89,27676.95 54093.75,27676.95 "/>
    <polygon id="_99" class="fil84" points="54175.18,21891.08 54297.32,21891.08 54297.32,27676.95 54175.18,27676.95 "/>
    <polygon id="_100" class="fil85" points="54256.61,21891.08 54378.75,21891.08 54378.75,27676.95 54256.61,27676.95 "/>
    <polygon id="_101" class="fil86" points="54338.03,21891.08 54460.17,21891.08 54460.17,27676.95 54338.03,27676.95 "/>
    <polygon id="_102" class="fil87" points="54419.46,21891.08 54541.6,21891.08 54541.6,27676.95 54419.46,27676.95 "/>
    <polygon id="_103" class="fil88" points="54500.89,21891.08 54623.03,21891.08 54623.03,27676.95 54500.89,27676.95 "/>
    <polygon id="_104" class="fil89" points="54582.31,21891.08 54704.45,21891.08 54704.45,27676.95 54582.31,27676.95 "/>
    <polygon id="_105" class="fil90" points="54663.74,21891.08 54785.88,21891.08 54785.88,27676.95 54663.74,27676.95 "/>
    <polygon id="_106" class="fil91" points="54745.17,21891.08 54867.31,21891.08 54867.31,27676.95 54745.17,27676.95 "/>
    <polygon id="_107" class="fil91" points="54826.59,21891.08 54948.73,21891.08 54948.73,27676.95 54826.59,27676.95 "/>
    <polygon id="_108" class="fil92" points="54908.02,21891.08 55030.16,21891.08 55030.16,27676.95 54908.02,27676.95 "/>
    <polygon id="_109" class="fil92" points="54989.45,21891.08 55111.59,21891.08 55111.59,27676.95 54989.45,27676.95 "/>
    <polygon id="_110" class="fil93" points="55070.87,21891.08 55193.01,21891.08 55193.01,27676.95 55070.87,27676.95 "/>
    <polygon id="_111" class="fil94" points="55152.3,21891.08 55274.44,21891.08 55274.44,27676.95 55152.3,27676.95 "/>
    <polygon id="_112" class="fil95" points="55233.73,21891.08 55355.87,21891.08 55355.87,27676.95 55233.73,27676.95 "/>
    <polygon id="_113" class="fil96" points="55315.15,21891.08 55437.29,21891.08 55437.29,27676.95 55315.15,27676.95 "/>
    <polygon id="_114" class="fil97" points="55396.58,21891.08 55518.72,21891.08 55518.72,27676.95 55396.58,27676.95 "/>
    <polygon id="_115" class="fil98" points="55478.01,21891.08 55600.15,21891.08 55600.15,27676.95 55478.01,27676.95 "/>
    <polygon id="_116" class="fil99" points="55559.43,21891.08 55681.57,21891.08 55681.57,27676.95 55559.43,27676.95 "/>
    <polygon id="_117" class="fil100" points="55640.86,21891.08 55763,21891.08 55763,27676.95 55640.86,27676.95 "/>
    <polygon id="_118" class="fil100" points="55722.29,21891.08 55844.43,21891.08 55844.43,27676.95 55722.29,27676.95 "/>
    <polygon id="_119" class="fil101" points="55803.71,21891.08 55925.85,21891.08 55925.85,27676.95 55803.71,27676.95 "/>
    <polygon id="_120" class="fil101" points="55885.14,21891.08 56007.28,21891.08 56007.28,27676.95 55885.14,27676.95 "/>
    <polygon id="_121" class="fil102" points="55966.57,21891.08 56088.71,21891.08 56088.71,27676.95 55966.57,27676.95 "/>
    <polygon id="_122" class="fil102" points="56047.99,21891.08 56170.13,21891.08 56170.13,27676.95 56047.99,27676.95 "/>
    <polygon id="_123" class="fil103" points="56129.42,21891.08 56251.56,21891.08 56251.56,27676.95 56129.42,27676.95 "/>
    <polygon id="_124" class="fil103" points="56210.85,21891.08 56332.99,21891.08 56332.99,27676.95 56210.85,27676.95 "/>
    <polygon id="_125" class="fil104" points="56292.27,21891.08 56414.41,21891.08 56414.41,27676.95 56292.27,27676.95 "/>
    <polygon id="_126" class="fil104" points="56373.7,21891.08 56495.84,21891.08 56495.84,27676.95 56373.7,27676.95 "/>
    <polygon id="_127" class="fil105" points="56455.13,21891.08 56577.27,21891.08 56577.27,27676.95 56455.13,27676.95 "/>
    <polygon id="_128" class="fil105" points="56536.55,21891.08 56658.69,21891.08 56658.69,27676.95 56536.55,27676.95 "/>
    <polygon id="_129" class="fil106" points="56617.98,21891.08 56740.12,21891.08 56740.12,27676.95 56617.98,27676.95 "/>
    <polygon id="_130" class="fil106" points="56699.41,21891.08 56821.55,21891.08 56821.55,27676.95 56699.41,27676.95 "/>
    <polygon id="_131" class="fil107" points="56780.83,21891.08 56902.97,21891.08 56902.97,27676.95 56780.83,27676.95 "/>
    <polygon id="_132" class="fil107" points="56862.26,21891.08 56984.4,21891.08 56984.4,27676.95 56862.26,27676.95 "/>
    <polygon id="_133" class="fil108" points="56943.69,21891.08 57065.83,21891.08 57065.83,27676.95 56943.69,27676.95 "/>
    <polygon id="_134" class="fil108" points="57025.11,21891.08 57147.25,21891.08 57147.25,27676.95 57025.11,27676.95 "/>
    <polygon id="_135" class="fil109" points="57106.54,21891.08 57228.68,21891.08 57228.68,27676.95 57106.54,27676.95 "/>
    <polygon id="_136" class="fil109" points="57187.97,21891.08 57310.11,21891.08 57310.11,27676.95 57187.97,27676.95 "/>
    <polygon id="_137" class="fil110" points="57269.39,21891.08 57391.53,21891.08 57391.53,27676.95 57269.39,27676.95 "/>
    <polygon id="_138" class="fil111" points="57350.82,21891.08 57472.96,21891.08 57472.96,27676.95 57350.82,27676.95 "/>
    <polygon id="_139" class="fil112" points="57432.25,21891.08 57554.39,21891.08 57554.39,27676.95 57432.25,27676.95 "/>
    <polygon id="_140" class="fil112" points="57513.67,21891.08 57635.81,21891.08 57635.81,27676.95 57513.67,27676.95 "/>
    <polygon id="_141" class="fil113" points="57595.1,21891.08 57717.24,21891.08 57717.24,27676.95 57595.1,27676.95 "/>
    <polygon id="_142" class="fil114" points="57676.53,21891.08 57798.67,21891.08 57798.67,27676.95 57676.53,27676.95 "/>
    <polygon id="_143" class="fil115" points="57757.95,21891.08 57880.09,21891.08 57880.09,27676.95 57757.95,27676.95 "/>
    <polygon id="_144" class="fil116" points="57839.38,21891.08 57961.52,21891.08 57961.52,27676.95 57839.38,27676.95 "/>
    <polygon id="_145" class="fil117" points="57920.8,21891.08 58042.94,21891.08 58042.94,27676.95 57920.8,27676.95 "/>
    <polygon id="_146" class="fil118" points="58002.23,21891.08 58124.37,21891.08 58124.37,27676.95 58002.23,27676.95 "/>
    <polygon id="_147" class="fil119" points="58083.66,21891.08 58205.8,21891.08 58205.8,27676.95 58083.66,27676.95 "/>
    <polygon id="_148" class="fil120" points="58165.08,21891.08 58287.22,21891.08 58287.22,27676.95 58165.08,27676.95 "/>
    <polygon id="_149" class="fil121" points="58246.51,21891.08 58368.65,21891.08 58368.65,27676.95 58246.51,27676.95 "/>
    <polygon id="_150" class="fil122" points="58327.94,21891.08 58450.08,21891.08 58450.08,27676.95 58327.94,27676.95 "/>
    <polygon id="_151" class="fil123" points="58409.36,21891.08 58531.5,21891.08 58531.5,27676.95 58409.36,27676.95 "/>
    <polygon id="_152" class="fil124" points="58490.79,21891.08 58612.93,21891.08 58612.93,27676.95 58490.79,27676.95 "/>
    <polygon id="_153" class="fil125" points="58572.22,21891.08 58694.36,21891.08 58694.36,27676.95 58572.22,27676.95 "/>
    <polygon id="_154" class="fil126" points="58653.64,21891.08 58775.78,21891.08 58775.78,27676.95 58653.64,27676.95 "/>
    <polygon id="_155" class="fil127" points="58735.07,21891.08 58857.21,21891.08 58857.21,27676.95 58735.07,27676.95 "/>
    <polygon id="_156" class="fil128" points="58816.5,21891.08 58938.64,21891.08 58938.64,27676.95 58816.5,27676.95 "/>
    <polygon id="_157" class="fil129" points="58897.92,21891.08 59020.06,21891.08 59020.06,27676.95 58897.92,27676.95 "/>
    <polygon id="_158" class="fil130" points="58979.35,21891.08 59101.49,21891.08 59101.49,27676.95 58979.35,27676.95 "/>
    <polygon id="_159" class="fil131" points="59060.78,21891.08 59182.92,21891.08 59182.92,27676.95 59060.78,27676.95 "/>
    <polygon id="_160" class="fil132" points="59142.2,21891.08 59264.34,21891.08 59264.34,27676.95 59142.2,27676.95 "/>
    <polygon id="_161" class="fil133" points="59223.63,21891.08 59345.77,21891.08 59345.77,27676.95 59223.63,27676.95 "/>
    <polygon id="_162" class="fil134" points="59305.06,21891.08 59427.2,21891.08 59427.2,27676.95 59305.06,27676.95 "/>
    <polygon id="_163" class="fil135" points="59386.48,21891.08 59508.62,21891.08 59508.62,27676.95 59386.48,27676.95 "/>
    <polygon id="_164" class="fil136" points="59467.91,21891.08 59590.05,21891.08 59590.05,27676.95 59467.91,27676.95 "/>
    <polygon id="_165" class="fil137" points="59549.34,21891.08 59671.48,21891.08 59671.48,27676.95 59549.34,27676.95 "/>
    <polygon id="_166" class="fil138" points="59630.76,21891.08 59752.9,21891.08 59752.9,27676.95 59630.76,27676.95 "/>
    <polygon id="_167" class="fil139" points="59712.19,21891.08 59834.33,21891.08 59834.33,27676.95 59712.19,27676.95 "/>
    <polygon id="_168" class="fil140" points="59793.62,21891.08 59915.76,21891.08 59915.76,27676.95 59793.62,27676.95 "/>
    <polygon id="_169" class="fil141" points="59875.04,21891.08 59997.18,21891.08 59997.18,27676.95 59875.04,27676.95 "/>
    <polygon id="_170" class="fil141" points="59956.47,21891.08 60078.61,21891.08 60078.61,27676.95 59956.47,27676.95 "/>
    <polygon id="_171" class="fil142" points="60037.9,21891.08 60160.04,21891.08 60160.04,27676.95 60037.9,27676.95 "/>
    <polygon id="_172" class="fil142" points="60119.32,21891.08 60241.46,21891.08 60241.46,27676.95 60119.32,27676.95 "/>
    <polygon id="_173" class="fil143" points="60200.75,21891.08 60322.89,21891.08 60322.89,27676.95 60200.75,27676.95 "/>
    <polygon id="_174" class="fil143" points="60282.18,21891.08 60404.32,21891.08 60404.32,27676.95 60282.18,27676.95 "/>
    <polygon id="_175" class="fil144" points="60363.6,21891.08 60485.74,21891.08 60485.74,27676.95 60363.6,27676.95 "/>
    <polygon id="_176" class="fil144" points="60445.03,21891.08 60567.17,21891.08 60567.17,27676.95 60445.03,27676.95 "/>
    <polygon id="_177" class="fil145" points="60526.46,21891.08 60648.6,21891.08 60648.6,27676.95 60526.46,27676.95 "/>
    <polygon id="_178" class="fil145" points="60607.88,21891.08 60730.02,21891.08 60730.02,27676.95 60607.88,27676.95 "/>
    <polygon id="_179" class="fil146" points="60689.31,21891.08 60811.45,21891.08 60811.45,27676.95 60689.31,27676.95 "/>
    <polygon id="_180" class="fil146" points="60770.74,21891.08 60892.88,21891.08 60892.88,27676.95 60770.74,27676.95 "/>
    <polygon id="_181" class="fil147" points="60852.16,21891.08 60974.3,21891.08 60974.3,27676.95 60852.16,27676.95 "/>
    <polygon id="_182" class="fil147" points="60933.59,21891.08 61055.73,21891.08 61055.73,27676.95 60933.59,27676.95 "/>
    <polygon id="_183" class="fil148" points="61015.02,21891.08 61137.16,21891.08 61137.16,27676.95 61015.02,27676.95 "/>
    <polygon id="_184" class="fil149" points="61096.44,21891.08 61218.58,21891.08 61218.58,27676.95 61096.44,27676.95 "/>
    <polygon id="_185" class="fil150" points="61177.87,21891.08 61300.01,21891.08 61300.01,27676.95 61177.87,27676.95 "/>
    <polygon id="_186" class="fil150" points="61259.3,21891.08 61381.44,21891.08 61381.44,27676.95 61259.3,27676.95 "/>
    <polygon id="_187" class="fil151" points="61340.72,21891.08 61462.86,21891.08 61462.86,27676.95 61340.72,27676.95 "/>
    <polygon id="_188" class="fil151" points="61422.15,21891.08 61544.29,21891.08 61544.29,27676.95 61422.15,27676.95 "/>
    <polygon id="_189" class="fil152" points="61503.58,21891.08 61625.72,21891.08 61625.72,27676.95 61503.58,27676.95 "/>
    <polygon id="_190" class="fil153" points="61585,21891.08 61707.14,21891.08 61707.14,27676.95 61585,27676.95 "/>
    <polygon id="_191" class="fil154" points="61666.43,21891.08 61788.57,21891.08 61788.57,27676.95 61666.43,27676.95 "/>
    <polygon id="_192" class="fil154" points="61747.86,21891.08 61869.99,21891.08 61869.99,27676.95 61747.86,27676.95 "/>
    <polygon id="_193" class="fil155" points="61829.28,21891.08 61951.42,21891.08 61951.42,27676.95 61829.28,27676.95 "/>
    <polygon id="_194" class="fil155" points="61910.71,21891.08 62032.85,21891.08 62032.85,27676.95 61910.71,27676.95 "/>
    <polygon id="_195" class="fil156" points="61992.13,21891.08 62114.27,21891.08 62114.27,27676.95 61992.13,27676.95 "/>
    <polygon id="_196" class="fil157" points="62073.56,21891.08 62195.7,21891.08 62195.7,27676.95 62073.56,27676.95 "/>
    <polygon id="_197" class="fil158" points="62154.99,21891.08 62277.13,21891.08 62277.13,27676.95 62154.99,27676.95 "/>
    <polygon id="_198" class="fil158" points="62236.41,21891.08 62358.55,21891.08 62358.55,27676.95 62236.41,27676.95 "/>
    <polygon id="_199" class="fil159" points="62317.84,21891.08 62439.98,21891.08 62439.98,27676.95 62317.84,27676.95 "/>
    <polygon id="_200" class="fil160" points="62399.27,21891.08 62521.41,21891.08 62521.41,27676.95 62399.27,27676.95 "/>
    <polygon id="_201" class="fil161" points="62480.69,21891.08 62602.83,21891.08 62602.83,27676.95 62480.69,27676.95 "/>
    <polygon id="_202" class="fil162" points="62562.12,21891.08 62684.26,21891.08 62684.26,27676.95 62562.12,27676.95 "/>
    <polygon id="_203" class="fil163" points="62643.55,21891.08 62765.69,21891.08 62765.69,27676.95 62643.55,27676.95 "/>
    <polygon id="_204" class="fil164" points="62724.97,21891.08 62847.11,21891.08 62847.11,27676.95 62724.97,27676.95 "/>
    <polygon id="_205" class="fil165" points="62806.4,21891.08 62928.54,21891.08 62928.54,27676.95 62806.4,27676.95 "/>
    <polygon id="_206" class="fil166" points="62887.83,21891.08 63009.97,21891.08 63009.97,27676.95 62887.83,27676.95 "/>
    <polygon id="_207" class="fil167" points="62969.25,21891.08 63091.39,21891.08 63091.39,27676.95 62969.25,27676.95 "/>
    <polygon id="_208" class="fil168" points="63050.68,21891.08 63172.82,21891.08 63172.82,27676.95 63050.68,27676.95 "/>
    <polygon id="_209" class="fil169" points="63132.11,21891.08 63254.25,21891.08 63254.25,27676.95 63132.11,27676.95 "/>
    <polygon id="_210" class="fil170" points="63213.53,21891.08 63335.67,21891.08 63335.67,27676.95 63213.53,27676.95 "/>
    <polygon id="_211" class="fil171" points="63294.96,21891.08 63417.1,21891.08 63417.1,27676.95 63294.96,27676.95 "/>
    <polygon id="_212" class="fil172" points="63376.39,21891.08 63498.53,21891.08 63498.53,27676.95 63376.39,27676.95 "/>
    <polygon id="_213" class="fil173" points="63457.81,21891.08 63579.95,21891.08 63579.95,27676.95 63457.81,27676.95 "/>
    <polygon id="_214" class="fil174" points="63539.24,21891.08 63661.38,21891.08 63661.38,27676.95 63539.24,27676.95 "/>
    <polygon id="_215" class="fil175" points="63620.67,21891.08 63742.81,21891.08 63742.81,27676.95 63620.67,27676.95 "/>
    <polygon id="_216" class="fil176" points="63702.09,21891.08 63824.23,21891.08 63824.23,27676.95 63702.09,27676.95 "/>
    <polygon id="_217" class="fil177" points="63783.52,21891.08 63905.66,21891.08 63905.66,27676.95 63783.52,27676.95 "/>
    <polygon id="_218" class="fil178" points="63864.95,21891.08 63987.09,21891.08 63987.09,27676.95 63864.95,27676.95 "/>
    <polygon id="_219" class="fil179" points="63946.37,21891.08 64068.51,21891.08 64068.51,27676.95 63946.37,27676.95 "/>
    <polygon id="_220" class="fil180" points="64027.8,21891.08 64149.94,21891.08 64149.94,27676.95 64027.8,27676.95 "/>
    <polygon id="_221" class="fil181" points="64109.23,21891.08 64231.37,21891.08 64231.37,27676.95 64109.23,27676.95 "/>
    <polygon id="_222" class="fil182" points="64190.65,21891.08 64312.79,21891.08 64312.79,27676.95 64190.65,27676.95 "/>
    <polygon id="_223" class="fil183" points="64272.08,21891.08 64394.22,21891.08 64394.22,27676.95 64272.08,27676.95 "/>
    <polygon id="_224" class="fil184" points="64353.51,21891.08 64475.65,21891.08 64475.65,27676.95 64353.51,27676.95 "/>
    <polygon id="_225" class="fil185" points="64434.93,21891.08 64557.07,21891.08 64557.07,27676.95 64434.93,27676.95 "/>
    <polygon id="_226" class="fil186" points="64516.36,21891.08 64638.5,21891.08 64638.5,27676.95 64516.36,27676.95 "/>
    <polygon id="_227" class="fil187" points="64597.79,21891.08 64719.93,21891.08 64719.93,27676.95 64597.79,27676.95 "/>
    <polygon id="_228" class="fil187" points="64679.21,21891.08 64801.35,21891.08 64801.35,27676.95 64679.21,27676.95 "/>
    <polygon id="_229" class="fil188" points="64760.64,21891.08 64882.78,21891.08 64882.78,27676.95 64760.64,27676.95 "/>
    <polygon id="_230" class="fil188" points="64842.07,21891.08 64964.21,21891.08 64964.21,27676.95 64842.07,27676.95 "/>
    <polygon id="_231" class="fil189" points="64923.49,21891.08 65045.63,21891.08 65045.63,27676.95 64923.49,27676.95 "/>
    <polygon id="_232" class="fil189" points="65004.92,21891.08 65127.06,21891.08 65127.06,27676.95 65004.92,27676.95 "/>
    <polygon id="_233" class="fil190" points="65086.35,21891.08 65208.49,21891.08 65208.49,27676.95 65086.35,27676.95 "/>
    <polygon id="_234" class="fil190" points="65167.77,21891.08 65289.91,21891.08 65289.91,27676.95 65167.77,27676.95 "/>
    <polygon id="_235" class="fil191" points="65249.2,21891.08 65371.34,21891.08 65371.34,27676.95 65249.2,27676.95 "/>
    <polygon id="_236" class="fil192" points="65330.63,21891.08 65452.77,21891.08 65452.77,27676.95 65330.63,27676.95 "/>
    <polygon id="_237" class="fil193" points="65412.05,21891.08 65534.19,21891.08 65534.19,27676.95 65412.05,27676.95 "/>
    <polygon id="_238" class="fil193" points="65493.48,21891.08 65615.62,21891.08 65615.62,27676.95 65493.48,27676.95 "/>
    <polygon id="_239" class="fil194" points="65574.91,21891.08 65697.05,21891.08 65697.05,27676.95 65574.91,27676.95 "/>
    <polygon id="_240" class="fil194" points="65656.33,21891.08 65778.47,21891.08 65778.47,27676.95 65656.33,27676.95 "/>
    <polygon id="_241" class="fil195" points="65737.76,21891.08 65859.9,21891.08 65859.9,27676.95 65737.76,27676.95 "/>
    <polygon id="_242" class="fil196" points="65819.18,21891.08 65941.32,21891.08 65941.32,27676.95 65819.18,27676.95 "/>
    <polygon id="_243" class="fil197" points="65900.61,21891.08 66022.75,21891.08 66022.75,27676.95 65900.61,27676.95 "/>
    <polygon id="_244" class="fil197" points="65982.04,21891.08 66104.18,21891.08 66104.18,27676.95 65982.04,27676.95 "/>
    <polygon id="_245" class="fil198" points="66063.46,21891.08 66185.6,21891.08 66185.6,27676.95 66063.46,27676.95 "/>
    <polygon id="_246" class="fil198" points="66144.89,21891.08 66267.03,21891.08 66267.03,27676.95 66144.89,27676.95 "/>
    <polygon id="_247" class="fil199" points="66226.32,21891.08 66348.46,21891.08 66348.46,27676.95 66226.32,27676.95 "/>
    <polygon id="_248" class="fil200" points="66307.74,21891.08 66429.88,21891.08 66429.88,27676.95 66307.74,27676.95 "/>
    <polygon id="_249" class="fil201" points="66389.17,21891.08 66511.31,21891.08 66511.31,27676.95 66389.17,27676.95 "/>
    <polygon id="_250" class="fil201" points="66470.6,21891.08 66592.74,21891.08 66592.74,27676.95 66470.6,27676.95 "/>
    <polygon id="_251" class="fil202" points="66552.02,21891.08 66674.16,21891.08 66674.16,27676.95 66552.02,27676.95 "/>
    <polygon id="_252" class="fil202" points="66633.45,21891.08 66755.59,21891.08 66755.59,27676.95 66633.45,27676.95 "/>
    <polygon id="_253" class="fil203" points="66714.88,21891.08 66837.02,21891.08 66837.02,27676.95 66714.88,27676.95 "/>
    <polygon id="_254" class="fil204" points="66796.3,21891.08 66918.44,21891.08 66918.44,27676.95 66796.3,27676.95 "/>
    <polygon id="_255" class="fil2" points="66877.73,21891.08 66999.87,21891.08 66999.87,27676.95 66877.73,27676.95 "/>
    <polygon id="_256" class="fil2" points="66959.16,21891.08 67081.3,21891.08 67081.3,27676.95 66959.16,27676.95 "/>
    <polygon id="_257" class="fil3" points="67040.58,21891.08 67040.58,21891.08 67040.58,27676.95 67040.58,27676.95 "/>
   </g>
   <path id="_258" class="fil205 str0" d="M49385.64 21979.47l0 2684.01 -1558.97 -2322.39 -241.08 -361.62 -96.44 0 0 3238.48 0 2041.14 -956.27 0 0 -5279.62 -337.51 0 0 5617.12 1639.33 0 0 -2692.03 1792.01 2692.03 1398.26 0 0 -5617.12 -1639.33 0zm425.9 5279.62l-1984.87 -2965.27 0 -1341.99 1896.48 2828.64 0 -3463.48 964.31 0 0 4942.1 -875.92 0zm3624.21 -1751.85l1719.69 0 0 -1494.67 -1719.69 0 0 -474.13 1960.77 0 0 -1558.97 -3592.07 0 0 2370.6 3013.48 0 0 819.67 -3013.48 0 0 2426.85 3656.35 0 0 -1550.93 -2025.05 0 0 -538.42zm-337.51 -1494.67l-956.28 0 0 -1695.58 2917.04 0 0 883.95 -1960.76 0 0 811.63zm2025.06 3246.52l-2981.34 0 0 -1751.85 956.28 0 0 875.92 2025.06 0 0 875.93zm5705.51 -4556.39c-361.62,-377.68 -827.7,-626.79 -1350.04,-747.33 -104.47,-32.15 -225,-48.22 -337.51,-64.29l0 1615.22c128.58,32.14 241.08,88.4 337.51,160.72 353.58,249.11 522.34,683.05 522.34,1108.96 0,634.84 -385.73,1317.89 -1221.47,1317.89 -835.74,0 -1213.42,-683.05 -1213.42,-1317.89 0,-425.91 168.76,-867.88 530.37,-1116.99 96.43,-72.32 208.93,-128.58 337.51,-160.73l0 -345.53c-120.54,24.1 -241.08,64.28 -337.51,112.49 -578.58,281.26 -875.92,891.99 -875.92,1510.76 0,819.67 538.41,1655.4 1558.97,1655.4 1020.57,0 1558.98,-835.73 1558.98,-1655.4 0,-610.73 -289.3,-1229.5 -859.85,-1502.72l0 -972.34c1084.85,281.25 1816.12,1237.52 1816.12,2475.06 0,1486.65 -1052.71,2563.46 -2515.25,2563.46 -1454.5,0 -2515.24,-1076.81 -2515.24,-2563.46 0,-1245.57 739.3,-2193.81 1832.19,-2483.1 104.47,-24.12 216.97,-48.22 337.51,-56.26l0 -345.54c-120.54,16.07 -233.04,32.14 -337.51,56.25 -530.37,120.54 -996.45,377.69 -1366.11,755.37 -514.29,530.38 -803.59,1269.68 -803.59,2073.28 0,803.59 289.3,1542.9 803.59,2073.27 522.33,538.41 1253.61,827.7 2049.16,827.7 803.6,0 1526.83,-289.29 2049.17,-827.7 522.33,-530.37 803.58,-1269.68 803.58,-2073.27 0,-803.6 -281.25,-1542.9 -803.58,-2073.28zm4572.45 -723.23l0 2684.01 -1558.97 -2322.39 -241.08 -361.62 -96.44 0 0 3238.48 0 2041.14 -956.27 0 0 -5279.62 -337.51 0 0 5617.12 1639.33 0 0 -2692.03 1792.01 2692.03 1398.25 0 0 -5617.12 -1639.32 0zm425.9 5279.62l-1984.87 -2965.27 0 -1341.99 1896.47 2828.64 0 -3463.48 964.32 0 0 4942.1 -875.92 0z"/>
  </g>
  <g style="clip-path:url(#id3)">
   <image x="23276.45" y="21574.23" width="48960" height="17518.59" xlink:href="logo ECO FANDY_Images\logo ECO FANDY_ImgID3.png"/>
  </g>
  <path class="fil206 str1" d="M25168.89 29357.84c1971.42,0 3942.85,0 5018.75,-19.6 1075.91,-19.61 1256.31,-58.84 1314.28,-78.44 57.98,-19.61 -6.44,-19.61 180.4,-712.47 186.83,-692.87 624.92,-2078.61 843.96,-2771.47 219.05,-692.86 219.05,-692.86 502.53,588.28 283.47,1281.15 850.4,3843.45 1133.88,5124.6 283.47,1281.14 283.47,1281.14 425.2,732.08 141.74,-549.07 425.22,-1647.19 566.95,-2196.25 141.74,-549.07 141.74,-549.07 979.27,-568.68 837.54,-19.61 2512.6,-58.82 3369.46,-78.44 856.86,-19.61 895.51,-19.61 1217.64,-1294.22 322.13,-1274.61 927.73,-3823.84 1230.53,-5098.45 302.8,-1274.61 302.8,-1274.61 444.53,1536.08 141.74,2810.67 425.21,8432.05 566.94,11216.59 141.74,2784.54 141.74,2732.24 438.09,1196.17 296.36,-1536.08 889.08,-4555.92 1185.43,-6065.85 296.36,-1509.93 296.36,-1509.93 4120.58,-1512.38 3824.23,-2.45 11472.66,-7.35 15295.68,-9.05 3823.04,-1.72 3820.64,-0.24 3819.45,0.5 -1.2,0.73 -1.2,0.73 2.05,-314.52 3.26,-315.25 9.75,-945.75 12.99,-1261 3.26,-315.25 3.26,-315.25 416.01,74.75 412.75,390 1238.25,1169.99 1650.99,1559.99 412.76,390 412.76,390 -3.24,646.76 -416,256.74 -1247.99,770.24 -2080,1283.74"/>
 </g>
</svg>
